<?xml version="1.0" encoding="iso-8859-1"?>
<!-- Generator: Adobe Illustrator 18.0.0, SVG Export Plug-In . SVG Version: 6.00 Build 0)  -->
<!DOCTYPE svg PUBLIC "-//W3C//DTD SVG 1.1//EN" "http://www.w3.org/Graphics/SVG/1.1/DTD/svg11.dtd">
<svg version="1.1" id="Capa_1" xmlns="http://www.w3.org/2000/svg" xmlns:xlink="http://www.w3.org/1999/xlink" x="0px" y="0px"
	 viewBox="0 0 342.666 342.666" style="enable-background:new 0 0 342.666 342.666;" xml:space="preserve">
<g>
	<g>
		<path style="fill:#FFBBD2;" d="M97.524,96.396c8.293,0,15.039-6.746,15.039-15.039c0-8.293-6.746-15.039-15.039-15.039
			s-15.04,6.746-15.04,15.039C82.484,89.65,89.231,96.396,97.524,96.396z"/>
		<path style="fill:#FFBBD2;" d="M142.604,96.396c8.292,0,15.038-6.746,15.038-15.039c0-8.293-6.746-15.039-15.038-15.039
			c-8.293,0-15.04,6.746-15.04,15.039C127.563,89.65,134.311,96.396,142.604,96.396z"/>
		<path style="fill:#FFBBD2;" d="M187.682,96.396c8.292,0,15.038-6.746,15.038-15.039c0-8.293-6.746-15.039-15.038-15.039
			c-8.293,0-15.04,6.746-15.04,15.039C172.642,89.65,179.389,96.396,187.682,96.396z"/>
		<path style="fill:#FFBBD2;" d="M88.176,179.832c5.573,8.965,9.328,14.461,16.011,14.461c6.682,0,10.438-5.494,16.011-14.459
			c5.966-9.598,13.391-21.541,28.75-21.541c15.358,0,22.783,11.943,28.749,21.539c5.573,8.965,9.329,14.461,16.011,14.461
			c6.684,0,10.439-5.496,16.014-14.461c5.967-9.596,13.393-21.539,28.752-21.539c15.359,0,22.785,11.943,28.752,21.539
			c3.13,5.033,5.689,8.967,8.515,11.449v-45.033H66.928v13.111C77.387,162.488,83.275,171.949,88.176,179.832z"/>
		<path style="fill:#FFBBD2;" d="M275.739,208.221c-10.46-3.129-16.352-12.586-21.253-20.469
			c-5.574-8.965-9.33-14.459-16.014-14.459c-6.684,0-10.439,5.494-16.014,14.459c-5.967,9.598-13.393,21.541-28.752,21.541
			c-15.358,0-22.783-11.943-28.749-21.541c-5.573-8.965-9.329-14.459-16.011-14.459c-6.683,0-10.438,5.494-16.012,14.459
			c-5.966,9.598-13.391,21.541-28.749,21.541s-22.783-11.943-28.749-21.541c-3.13-5.035-5.687-8.975-8.51-11.461v45.047h208.812
			V208.221z"/>
		<path style="fill:#3CBCC6;" d="M323.849,253.713h-33.109V106.375c0-4.143-3.357-7.5-7.5-7.5h-71.179
			c3.557-4.935,5.659-10.984,5.659-17.518c0-16.563-13.475-30.039-30.038-30.039c-8.971,0-17.031,3.959-22.54,10.213
			c-5.509-6.254-13.567-10.213-22.538-10.213s-17.031,3.959-22.54,10.215c-5.509-6.256-13.568-10.215-22.539-10.215
			c-16.564,0-30.04,13.477-30.04,30.039c0,6.533,2.104,12.582,5.659,17.518H59.428c-4.143,0-7.5,3.357-7.5,7.5v147.338H18.816
			C8.441,253.713,0,262.154,0,272.529c0,10.377,8.441,18.818,18.816,18.818h305.032c10.376,0,18.817-8.441,18.817-18.818
			C342.666,262.154,334.225,253.713,323.849,253.713z M275.739,236.338v17.375H66.928v-17.375H275.739z M275.739,146.248v45.033
			c-2.825-2.482-5.385-6.416-8.515-11.449c-5.967-9.596-13.393-21.539-28.752-21.539c-15.359,0-22.785,11.943-28.752,21.539
			c-5.574,8.965-9.33,14.461-16.014,14.461c-6.682,0-10.438-5.496-16.011-14.461c-5.966-9.596-13.391-21.539-28.749-21.539
			c-15.359,0-22.784,11.943-28.75,21.541c-5.573,8.965-9.329,14.459-16.011,14.459c-6.683,0-10.438-5.496-16.011-14.461
			c-4.9-7.883-10.789-17.344-21.248-20.473v-13.111H275.739z M66.928,176.291c2.823,2.486,5.38,6.426,8.51,11.461
			c5.966,9.598,13.391,21.541,28.749,21.541s22.783-11.943,28.749-21.541c5.574-8.965,9.329-14.459,16.012-14.459
			c6.682,0,10.438,5.494,16.011,14.459c5.966,9.598,13.391,21.541,28.749,21.541c15.359,0,22.785-11.943,28.752-21.541
			c5.574-8.965,9.33-14.459,16.014-14.459c6.684,0,10.439,5.494,16.014,14.459c4.901,7.883,10.793,17.34,21.253,20.469v13.117
			H66.928V176.291z M187.682,66.318c8.292,0,15.038,6.746,15.038,15.039c0,8.293-6.746,15.039-15.038,15.039
			c-8.293,0-15.04-6.746-15.04-15.039C172.642,73.064,179.389,66.318,187.682,66.318z M142.604,66.318
			c8.292,0,15.038,6.746,15.038,15.039c0,8.293-6.746,15.039-15.038,15.039c-8.293,0-15.04-6.746-15.04-15.039
			C127.563,73.064,134.311,66.318,142.604,66.318z M97.524,66.318c8.293,0,15.039,6.746,15.039,15.039
			c0,8.293-6.746,15.039-15.039,15.039s-15.04-6.746-15.04-15.039C82.484,73.064,89.231,66.318,97.524,66.318z M66.928,113.875
			h208.812v17.373H66.928V113.875z M323.849,276.348H18.816c-2.104,0-3.816-1.713-3.816-3.818c0-2.103,1.712-3.816,3.816-3.816
			h305.032c2.104,0,3.817,1.713,3.817,3.816C327.666,274.635,325.953,276.348,323.849,276.348z"/>
	</g>
</g>
<g>
</g>
<g>
</g>
<g>
</g>
<g>
</g>
<g>
</g>
<g>
</g>
<g>
</g>
<g>
</g>
<g>
</g>
<g>
</g>
<g>
</g>
<g>
</g>
<g>
</g>
<g>
</g>
<g>
</g>
</svg>
